Coordinates
version=1
nRows=10
nColumns=40
inDegrees=yes

Units are S.I. units (second, meters, Newtons, ...)
If the header above contains a line with 'inDegrees', this indicates whether rotational values are in degrees (yes) or radians (no).

endheader
time	pelvis_tilt	pelvis_list	pelvis_rotation	pelvis_tx	pelvis_ty	pelvis_tz	hip_flexion_r	hip_adduction_r	hip_rotation_r	knee_angle_r	knee_angle_r_beta	ankle_angle_r	subtalar_angle_r	mtp_angle_r	hip_flexion_l	hip_adduction_l	hip_rotation_l	knee_angle_l	knee_angle_l_beta	ankle_angle_l	subtalar_angle_l	mtp_angle_l	lumbar_extension	lumbar_bending	lumbar_rotation	arm_flex_r	arm_add_r	arm_rot_r	elbow_flex_r	pro_sup_r	wrist_flex_r	wrist_dev_r	arm_flex_l	arm_add_l	arm_rot_l	elbow_flex_l	pro_sup_l	wrist_flex_l	wrist_dev_l
      0.92777778	     31.86641347	     21.20606649	     89.87898153	      0.29026213	      1.10043898	      0.53881959	    106.58329847	     19.32203493	    -33.65703672	    119.97960027	      2.09403906	    -11.04523587	      0.00000000	      0.00000000	      3.90985957	    -49.87482959	      6.73583424	     30.90488392	      0.53939198	     16.40445333	      0.00000000	      0.00000000	    -42.52394963	     12.32074029	     15.39679266	     48.09825782	    -17.97099477	     38.54165463	     96.63687578	     63.88110388	      0.00000000	      0.00000000	     57.60868327	    -24.13282938	     31.54655897	    103.73477701	     81.78028528	      0.00000000	      0.00000000
      0.93055556	     31.85365719	     21.30752303	     89.88341072	      0.29145478	      1.09991756	      0.53853229	    105.66886675	     19.70800325	    -33.39774325	    119.97934955	      2.09403468	    -11.01107675	      0.00000000	      0.00000000	      3.81663058	    -49.87527681	      6.95366733	     30.92883815	      0.53981006	     16.55822184	      0.00000000	      0.00000000	    -42.64200608	     12.25461991	     15.48525149	     48.15403922	    -18.16578087	     38.78548105	     96.47347600	     63.65051724	      0.00000000	      0.00000000	     57.33266395	    -24.13940198	     31.65757551	    103.65142025	     80.49975486	      0.00000000	      0.00000000
      0.93333333	     31.80481066	     21.39525410	     89.88377312	      0.29275826	      1.09942854	      0.53807084	    104.74387873	     20.11946348	    -33.10371876	    119.97902171	      2.09402896	    -10.91815830	      0.00000000	      0.00000000	      3.68937762	    -49.87324568	      7.01304242	     30.93390494	      0.53989849	     16.67135048	      0.00000000	      0.00000000	    -42.73948308	     12.14519015	     15.50870496	     48.20539722	    -18.26500450	     38.96920752	     96.14766257	     64.10470948	      0.00000000	      0.00000000	     56.93412463	    -24.12695842	     31.20414149	    103.59650055	     82.86613772	      0.00000000	      0.00000000
      0.93611111	     31.76115596	     21.44618464	     89.88695173	      0.29427377	      1.09873748	      0.53754227	    103.89940979	     20.51652492	    -32.81315624	    119.97857929	      2.09402124	    -10.89781094	      0.00000000	      0.00000000	      3.59901698	    -49.87203471	      7.17755928	     30.92118538	      0.53967649	     16.63904720	      0.00000000	      0.00000000	    -42.77308833	     12.02153119	     15.55919205	     48.19438256	    -18.41195875	     39.22445790	     96.02042521	     63.67532634	      0.00000000	      0.00000000	     56.67103879	    -24.23268174	     31.43870476	    103.51248299	     81.20682067	      0.00000000	      0.00000000
      0.93888889	     31.73818978	     21.58881937	     89.88686769	      0.29509576	      1.09847155	      0.53719015	    103.19081789	     20.79056296	    -32.60703082	    119.97825918	      2.09401565	    -10.85676916	      0.00000000	      0.00000000	      3.39264962	    -49.87108640	      7.25006124	     30.89851435	      0.53928081	     16.71404339	      0.00000000	      0.00000000	    -42.93450789	     11.95488489	     15.61281886	     48.21466579	    -18.52589601	     39.38861266	     95.94588476	     63.42149259	      0.00000000	      0.00000000	     56.49704737	    -24.31917402	     31.59239983	    103.50511751	     80.10567267	      0.00000000	      0.00000000
      0.94166667	     31.71330074	     21.64931268	     89.89029221	      0.29627323	      1.09765255	      0.53663450	    102.29582429	     21.16730727	    -32.23757812	    119.97765126	      2.09400504	    -10.75528297	      0.00000000	      0.00000000	      3.33911458	    -49.86912395	      7.42704243	     30.95380731	      0.54024585	     16.93243040	      0.00000000	      0.00000000	    -42.98083614	     11.89366983	     15.69263760	     48.22946340	    -18.73342045	     39.66058698	     95.78008261	     63.25545415	      0.00000000	      0.00000000	     56.15484661	    -24.33428879	     31.66632163	    103.37775024	     79.39910299	      0.00000000	      0.00000000
      0.94444444	     31.64755242	     21.84338664	     89.89048016	      0.29737335	      1.09704940	      0.53610774	    101.21489908	     21.55842008	    -31.80866801	    119.97698802	      2.09399347	    -10.58638219	      0.00000000	      0.00000000	      3.07391180	    -49.86278242	      7.40584900	     30.97981500	      0.54069977	     17.04957124	      0.00000000	      0.00000000	    -43.15931262	     11.77048023	     15.72580241	     48.25750301	    -18.91224336	     39.87267428	     95.52036196	     63.42490115	      0.00000000	      0.00000000	     55.75286744	    -24.23381706	     31.01216602	    103.18576413	     83.33346141	      0.00000000	      0.00000000
      0.94722222	     31.59636319	     21.86809792	     89.89433353	      0.29870791	      1.09604711	      0.53539602	    100.36419057	     21.93132615	    -31.40668015	    119.97609730	      2.09397792	    -10.48020972	      0.00000000	      0.00000000	      3.04862122	    -49.85906164	      7.55489021	     31.04610330	      0.54185672	     17.18716464	      0.00000000	      0.00000000	    -43.13823287	     11.67034879	     15.76419237	     48.24626632	    -19.10192609	     40.15463767	     95.34222666	     63.13921818	      0.00000000	      0.00000000	     55.41963111	    -24.35208755	     31.25322458	    103.07389946	     81.83219421	      0.00000000	      0.00000000
      0.95000000	     31.51542141	     22.06031804	     89.89420203	      0.30000578	      1.09535045	      0.53457846	     99.28193110	     22.32935767	    -30.96245621	    119.97506812	      2.09395996	    -10.11987312	      0.00000000	      0.00000000	      2.74039622	    -49.85184104	      7.51524772	     31.04609759	      0.54185662	     17.38801141	      0.00000000	      0.00000000	    -43.32154144	     11.54217787	     15.76730660	     48.29606941	    -19.21959788	     40.44711314	     95.09521715	     63.20275679	      0.00000000	      0.00000000	     55.01534069	    -24.44386219	     30.93453598	    103.02705752	     83.35660033	      0.00000000	      0.00000000
      0.95277778	     31.46741885	     21.98086011	     89.89515168	      0.30096615	      1.09441959	      0.53403170	     98.82488589	     22.55284996	    -30.65392510	    119.97425658	      2.09394580	    -10.21702161	      0.00000000	      0.00000000	      2.86591752	    -49.84675368	      7.60538403	     31.15470645	      0.54375221	     17.63781169	      0.00000000	      0.00000000	    -43.18721888	     11.46853038	     15.82109101	     48.24382204	    -19.38837994	     40.61562720	     94.98900057	     62.97732556	      0.00000000	      0.00000000	     54.75768497	    -24.45198162	     31.01396563	    102.88501010	     83.15425965	      0.00000000	      0.00000000
